<?xml version="1.0" encoding="UTF-8"?>
<svg id="Layer_1" xmlns="http://www.w3.org/2000/svg" version="1.1" viewBox="0 0 640 640">
  <!-- Generator: Adobe Illustrator 29.0.1, SVG Export Plug-In . SVG Version: 2.1.0 Build 192)  -->
  <path d="M131.2,121.5c0,5.4-4.4,9.8-9.8,9.8s-9.8-4.4-9.8-9.8,4.4-9.8,9.8-9.8,9.8,4.4,9.8,9.8ZM109.5,121.5c0,6.6,5.4,12,12,12s12-5.4,12-12-5.4-12-12-12-12,5.4-12,12ZM120.4,115.1v6.4c0,.4.2.7.5.9l4.5,3c.5.3,1.2.2,1.6-.3.3-.5.2-1.2-.3-1.6l-4-2.7v-5.8c0-.6-.5-1.1-1.1-1.1s-1.1.5-1.1,1.1Z"/>
</svg>